<?xml version="1.0" encoding="UTF-8"?>
<svg xmlns="http://www.w3.org/2000/svg" xmlns:xlink="http://www.w3.org/1999/xlink" viewBox="0 0 247 324.8">
  <defs>
    <style>
      .cls-1 {
        stroke-linecap: round;
        stroke-linejoin: round;
      }

      .cls-1, .cls-2 {
        fill: none;
        stroke: #000;
      }

      .cls-3 {
        fill: url(#linear-gradient-2);
      }

      .cls-4 {
        fill: #ffe4c8;
      }

      .cls-5 {
        fill: #5b3e2b;
      }

      .cls-6 {
        fill: url(#linear-gradient);
      }

      .cls-2 {
        stroke-miterlimit: 10;
      }
    </style>
    <linearGradient id="linear-gradient" x1="123.51" y1="159.72" x2="123.51" y2="322" gradientTransform="matrix(1, 0, 0, 1, 0, 0)" gradientUnits="userSpaceOnUse">
      <stop offset=".11" stop-color="#f9a86b" stop-opacity=".9"/>
      <stop offset=".77" stop-color="#f7a946"/>
    </linearGradient>
    <linearGradient id="linear-gradient-2" x1="124.49" y1="107.5" x2="124.49" y2="225.12" gradientTransform="matrix(1, 0, 0, 1, 0, 0)" gradientUnits="userSpaceOnUse">
      <stop offset="0" stop-color="#f9a86b" stop-opacity=".9"/>
      <stop offset=".39" stop-color="#f7a946" stop-opacity=".9"/>
      <stop offset=".49" stop-color="#f9bc70" stop-opacity=".9"/>
      <stop offset=".6" stop-color="#fbcc95" stop-opacity=".9"/>
      <stop offset=".7" stop-color="#fdd9b0" stop-opacity=".9"/>
      <stop offset=".8" stop-color="#fee0c1" stop-opacity=".9"/>
      <stop offset=".88" stop-color="#ffe3c7" stop-opacity=".9"/>
    </linearGradient>
  </defs>
  <g id="Layer_1" data-name="Layer 1"/>
  <g id="Layer_2" data-name="Layer 2">
    <g id="boba-4">
      <g id="cup">
        <path class="cls-1" d="M123.5,64.3c15.44,0,30.22,.22,43.83,.62v17.76c-13.61,.4-28.39,.62-43.83,.62-19.78,0-38.47-.36-55.02-1-37.17-1.44-63.59-4.29-67.48-7.65h-.01c-.33-.28-.49-.56-.49-.85,0-5.25,55.07-9.5,123-9.5Z"/>
        <path class="cls-1" d="M246.5,73.8c0,.29-.17,.57-.49,.85-3.4,2.96-24.32,5.52-54.68,7.08v-15.86c33.25,1.7,55.17,4.62,55.17,7.93Z"/>
        <path class="cls-1" d="M246.5,74.65c-.1,1.69-.69,5.39-3.77,6.15-2.34,.58-3.64,1.33-4.31,1.86l-17.92,195.93c-2.37,25.89-24.08,45.71-50.08,45.71H76.93c-26.01,0-47.73-19.83-50.08-45.74L9.03,82.66c-.67-.53-1.96-1.28-4.28-1.86-3.06-.76-3.65-4.46-3.75-6.15,3.89,3.36,30.31,6.21,67.48,7.65,16.55,.64,35.24,1,55.02,1s38.47-.36,55.02-1c37.2-1.44,63.63-4.29,67.49-7.65h.49Z"/>
        <path class="cls-1" d="M9.75,83.2c8.12,.63,7.6,7.81,15.78,8.37,8.18,.54,8.62-6.65,16.75-6.18,8.13,.44,7.77,7.63,15.96,8.02,8.19,.35,8.47-6.84,16.61-6.55,8.14,.26,7.94,7.46,16.13,7.66,8.19,.17,8.31-7.03,16.46-6.92,8.14,.08,8.1,7.28,16.3,7.29,8.2-.01,8.16-7.21,16.3-7.29,8.14-.11,8.26,7.09,16.46,6.92,8.19-.2,7.99-7.4,16.13-7.66,8.14-.29,8.42,6.91,16.61,6.55,8.19-.38,7.83-7.57,15.96-8.02,8.14-.47,8.58,6.72,16.76,6.18,8.18-.57,7.66-7.75,15.79-8.37"/>
      </g>
      <ellipse id="tea-top-4" class="cls-4" cx="124.54" cy="108.09" rx="110" ry="9"/>
      <g id="tea-4">
        <path class="cls-6" d="M227.73,180.16l-8.5,91.31c0,27.9-22.15,50.53-49.48,50.53H78.73c-27.34,0-49.49-22.63-49.49-50.53l-9.95-110.63s6.24-5.84,10.24,9.16,7,24,7,30,9.18,9,7.59,0c-1.59-9-.59-26,7.41-27s10,18,10,23-3,10.55,0,14.78c3,4.22,7,1.77,7.5,0,.5-1.78-2.5-17.18,0-21.98s6.12-4.97,8.81-2.38c2.69,2.58,8.37,23.08,7.53,28.33-.84,5.25,3.16,9.25,5.16,9.25s5.14-3.5,3.57-9.25c-1.57-5.75-8.58-35.25,.42-39.5,9.01-4.25,13.01,3.75,14.01,6.75s1,12.46,0,15.23,1,7.77,4,6.77,5-2,4-7-1-15.06,4.5-16.03c5.5-.97,8.9,5.75,9.2,10.89,.3,5.14,.3,12.14-2.7,17.14s-3.35,17.85,2.83,15.93c6.17-1.93,6.17-6.93,7.17-14.93s2-26.65,8.5-27.83c6.5-1.17,6.5,3.83,7.5,6.83s1,11.5,0,14.25,5,5.75,5,.75-2-12.02,0-17.01,8-10.67,13.5-9.33c5.5,1.34,9.5,13.34,7.5,19.34s-3.95,8.33,.52,10.16c4.48,1.84,5.48-1.16,5.48-7.16s-1-17,7-18,11,3,11,9,0,13-2,15-1,6.17,2,6.58c3,.42,6,3.42,6-8.58s6-21.46,12.5-22.73c3.27-.64,4.89-.96,5.7-1.11Z"/>
        <path class="cls-3" d="M234.49,107.5l-6.76,72.66c-.81,.15-2.43,.47-5.7,1.11-6.5,1.27-12.5,10.73-12.5,22.73s-3,9-6,8.58c-3-.41-4-4.58-2-6.58s2-9,2-15-3-10-11-9-7,12-7,18-1,9-5.48,7.16c-4.47-1.83-2.52-4.16-.52-10.16s-2-18-7.5-19.34c-5.5-1.34-11.5,4.34-13.5,9.33s0,12.01,0,17.01-6,2-5-.75,1-11.25,0-14.25-1-8-7.5-6.83c-6.5,1.18-7.5,19.83-8.5,27.83s-1,13-7.17,14.93c-6.18,1.92-5.83-10.93-2.83-15.93s3-12,2.7-17.14c-.3-5.14-3.7-11.86-9.2-10.89-5.5,.97-5.5,11.03-4.5,16.03s-1,6-4,7-5-4-4-6.77,1-12.23,0-15.23-5-11-14.01-6.75c-9,4.25-1.99,33.75-.42,39.5,1.57,5.75-1.57,9.25-3.57,9.25s-6-4-5.16-9.25c.84-5.25-4.84-25.75-7.53-28.33-2.69-2.59-6.31-2.42-8.81,2.38s.5,20.2,0,21.98c-.5,1.77-4.5,4.22-7.5,0-3-4.23,0-9.78,0-14.78s-2-24-10-23-9,18-7.41,27c1.59,9-7.59,6-7.59,0s-3-15-7-30-10.24-9.16-10.24-9.16l-4.8-53.34c0,4.97,49.24,9,110,9s110-4.03,110-9Z"/>
      </g>
      <path id="straw" class="cls-2" d="M191.33,.5V291.11c0,.25-.1,.49-.27,.66l-22.14,22.14c-.58,.58-1.59,.17-1.59-.66V.5h24Z"/>
      <g id="bubbles">
        <circle class="cls-5" cx="81.33" cy="249.5" r="8.5"/>
        <circle class="cls-5" cx="117.83" cy="265" r="7"/>
        <circle class="cls-5" cx="155.33" cy="264.5" r="6.5"/>
        <circle class="cls-5" cx="65.33" cy="289.5" r="7.5"/>
        <circle class="cls-5" cx="117.83" cy="304" r="7"/>
        <circle class="cls-5" cx="201.83" cy="259" r="7"/>
        <circle class="cls-5" cx="162.83" cy="302" r="8"/>
        <circle class="cls-5" cx="182.83" cy="279" r="7"/>
        <ellipse class="cls-5" cx="136.83" cy="283.5" rx="6" ry="5.5"/>
        <ellipse class="cls-5" cx="53.83" cy="266.5" rx="6" ry="5.5"/>
        <ellipse class="cls-5" cx="91.33" cy="279.5" rx="8.5" ry="7.5"/>
        <circle class="cls-5" cx="128.83" cy="241" r="8"/>
      </g>
    </g>
  </g>
</svg>